<svg xmlns="http://www.w3.org/2000/svg" xmlns:xlink="http://www.w3.org/1999/xlink" width="100" zoomAndPan="magnify" viewBox="0 0 75 74.999997" height="100" preserveAspectRatio="xMidYMid meet" version="1.0"><defs><clipPath id="0bdce96448"><path d="M 22 19.5625 L 50 19.5625 L 50 48 L 22 48 Z M 22 19.5625 " clip-rule="nonzero"/></clipPath><clipPath id="1a41637741"><path d="M 14.085938 46 L 56.835938 46 L 56.835938 60.8125 L 14.085938 60.8125 Z M 14.085938 46 " clip-rule="nonzero"/></clipPath></defs><g clip-path="url(#0bdce96448)"><path fill="#ffffff" d="M 39.210938 19.597656 L 32.03125 19.597656 C 31.042969 19.597656 30.238281 20.40625 30.238281 21.390625 L 30.238281 30.363281 C 30.238281 31.351562 29.429688 32.15625 28.441406 32.15625 L 23.058594 32.15625 C 22.074219 32.15625 21.800781 32.761719 22.457031 33.5 L 34.429688 46.96875 C 35.082031 47.703125 36.15625 47.703125 36.8125 46.96875 L 48.785156 33.5 C 49.4375 32.761719 49.167969 32.15625 48.179688 32.15625 L 42.796875 32.15625 C 41.8125 32.15625 41.003906 31.351562 41.003906 30.363281 L 41.003906 21.390625 C 41.003906 20.40625 40.195312 19.597656 39.210938 19.597656 Z M 39.210938 19.597656 " fill-opacity="1" fill-rule="nonzero"/></g><g clip-path="url(#1a41637741)"><path fill="#ffffff" d="M 55.359375 46.519531 L 53.566406 46.519531 C 52.578125 46.519531 51.769531 47.328125 51.769531 48.316406 L 51.769531 53.699219 C 51.769531 54.683594 50.960938 55.492188 49.976562 55.492188 L 21.265625 55.492188 C 20.277344 55.492188 19.46875 54.683594 19.46875 53.699219 L 19.46875 48.316406 C 19.46875 47.328125 18.664062 46.519531 17.675781 46.519531 L 15.882812 46.519531 C 14.894531 46.519531 14.085938 47.328125 14.085938 48.316406 L 14.085938 59.082031 C 14.085938 60.066406 14.894531 60.875 15.882812 60.875 L 55.359375 60.875 C 56.347656 60.875 57.152344 60.066406 57.152344 59.082031 L 57.152344 48.316406 C 57.152344 47.328125 56.347656 46.519531 55.359375 46.519531 Z M 55.359375 46.519531 " fill-opacity="1" fill-rule="nonzero"/></g></svg>