<svg xmlns="http://www.w3.org/2000/svg" xmlns:xlink="http://www.w3.org/1999/xlink" width="100" zoomAndPan="magnify" viewBox="0 0 75.119995 83.04" height="100" preserveAspectRatio="xMidYMid meet" version="1.0"><defs><clipPath id="8ce40bcfa7"><path d="M 21 19.339844 L 49 19.339844 L 49 47 L 21 47 Z M 21 19.339844 " clip-rule="nonzero"/></clipPath><clipPath id="057fc46abc"><path d="M 13.925781 45 L 56.179688 45 L 56.179688 60.113281 L 13.925781 60.113281 Z M 13.925781 45 " clip-rule="nonzero"/></clipPath></defs><g clip-path="url(#8ce40bcfa7)"><path fill="#ffffff" d="M 38.753906 19.375 L 31.660156 19.375 C 30.683594 19.375 29.886719 20.175781 29.886719 21.148438 L 29.886719 30.019531 C 29.886719 30.996094 29.089844 31.792969 28.113281 31.792969 L 22.792969 31.792969 C 21.816406 31.792969 21.550781 32.390625 22.195312 33.117188 L 34.03125 46.429688 C 34.675781 47.160156 35.738281 47.160156 36.386719 46.429688 L 48.21875 33.117188 C 48.867188 32.390625 48.597656 31.792969 47.625 31.792969 L 42.300781 31.792969 C 41.328125 31.792969 40.527344 30.996094 40.527344 30.019531 L 40.527344 21.148438 C 40.527344 20.175781 39.730469 19.375 38.753906 19.375 Z M 38.753906 19.375 " fill-opacity="1" fill-rule="nonzero"/></g><g clip-path="url(#057fc46abc)"><path fill="#ffffff" d="M 54.71875 45.988281 L 52.945312 45.988281 C 51.96875 45.988281 51.171875 46.785156 51.171875 47.761719 L 51.171875 53.082031 C 51.171875 54.058594 50.371094 54.855469 49.398438 54.855469 L 21.019531 54.855469 C 20.042969 54.855469 19.246094 54.058594 19.246094 53.082031 L 19.246094 47.761719 C 19.246094 46.785156 18.445312 45.988281 17.472656 45.988281 L 15.699219 45.988281 C 14.722656 45.988281 13.925781 46.785156 13.925781 47.761719 L 13.925781 58.402344 C 13.925781 59.378906 14.722656 60.175781 15.699219 60.175781 L 54.71875 60.175781 C 55.695312 60.175781 56.492188 59.378906 56.492188 58.402344 L 56.492188 47.761719 C 56.492188 46.785156 55.695312 45.988281 54.71875 45.988281 Z M 54.71875 45.988281 " fill-opacity="1" fill-rule="nonzero"/></g></svg>